<?xml version="1.0" encoding="iso-8859-1"?>
<!-- Generator: Adobe Illustrator 19.0.0, SVG Export Plug-In . SVG Version: 6.00 Build 0)  -->
<svg version="1.1" id="Layer_1" xmlns="http://www.w3.org/2000/svg" xmlns:xlink="http://www.w3.org/1999/xlink" x="0px" y="0px"
	 viewBox="0 0 504 504" style="enable-background:new 0 0 504 504;" xml:space="preserve">
<g>
	<g>
		<path d="M333.212,447.964c-1.86-0.248-3.712-0.372-5.508-0.372c-12.6,0-20.028,6.104-22.636,8.724
			c-1.024,1.028-3.128,2.68-5.16,4.276c-6.784,5.328-10.188,8-8.872,11.812c0.252,0.728,1.348,3.104,4.868,3.104
			c0.932,0,2.044-0.156,3.492-0.492c0.408-0.092,40.364-11.992,39.908-21.82C339.24,451.86,338.524,448.672,333.212,447.964z
			 M309.128,463.436c0.608-0.524,1.156-1.02,1.608-1.476c1.824-1.836,6.924-6.008,15.808-6.344
			C322.02,458.068,315.296,461.052,309.128,463.436z"/>
	</g>
</g>
<g>
	<g>
		<path d="M492.544,312.792c-0.816-0.216-1.64-0.168-2.384,0.092c-2.5-0.928-7.316-3.608-11.008-11.096
			c-1.492-3.02-5.672-10.264-12.272-12.3c-3.208-0.992-6.504-0.596-9.548,1.12c-0.564,0.316-0.884,0.4-0.916,0.444
			c-0.68-0.524-1.672-2.972-2.212-4.304c-1.392-3.432-2.968-7.324-6.968-8.084c-4.488-0.856-6.992,1.1-8.084,2.34
			c-2.936,3.332-3.004,9.128-0.216,17.716c1.68,5.172,4.044,10.724,8.848,12.668c3.18,1.292,6.8,0.812,11.076-1.46
			c0.336-0.184,1.048-0.556,2.584,0.684c3.572,2.884,6.236,10.476,5.092,14.5c-2.252,7.92-31.32,26.808-49.488,27.992
			c-8.256,0.568-9.748-2.908-10.24-4.04c-2.572-5.956-1.924-17.72-1.244-30.172c1.388-25.364,3.12-56.932-23.644-58.476
			c-1.3-0.064-4.748-0.276-6.616,2.436c-2,2.9-0.576,6.08,1.584,10.892c4.976,11.1,15.34,34.196,5.184,79.368
			c-1.356,6.012-0.336,11.492,2.94,15.848c6.416,8.524,19.48,10.508,26.692,10.932c0.244,0.016,0.748,0.044,0.764,0.984
			c0.048,2.692-5.268,10.892-29.5,13.196c-14.172,1.352-29.848,11.856-47.996,24.02c-25.188,16.884-53.736,36.02-85.964,36.02
			c-7.568,0-10.516-6.364-11.432-9.1c-2.38-7.112-0.872-17.264,6.62-22.912c4.888-3.696,11.384-22.4,9.416-35.032
			c-1.488-9.556-6.944-13.372-11.256-14.888c-1.264-0.444-0.3-6.844,0.116-9.58c1.02-6.748,2.42-15.992-5.424-18.536
			c-2.16-0.7-4.408-1.152-6.58-1.588c-8.112-1.632-13.472-2.708-14.248-13.476c-1.188-16.448-12.852-18.104-28.996-20.4
			c-5.452-0.776-11.636-1.652-18.7-3.152c-8.388-1.784-14.468-6.84-18.068-15.032c-5.656-12.864-3.632-30.192,1.488-38.872
			c10.588-17.956,26.244-24.6,36.608-29c9.308-3.944,10.696-10.452,11.812-15.684c0.584-2.732,1.084-5.092,2.584-7.14
			c2.868-3.92,8.74-7.424,13.028-9.984c3.476-2.072,5.772-3.444,7.02-5.096c4.164-5.504-0.34-9.424-3.632-12.288l-0.86-0.748
			c-0.828-0.9-2.748-6.3-2.356-13.736c0.216-4.068,1.352-11.58,6.552-16.124c4.936-4.324,6.684-3.208,11.868,0.064
			c1.96,1.24,4.176,2.644,6.844,3.812c4.024,1.764,7.588,1.96,10.584,0.584c4.728-2.176,6.32-7.424,7.376-10.896l0.116-0.384
			c1.392-4.544-2.464-8.032-5.868-11.108c-0.84-0.756-2.152-1.94-3.036-2.928c1.24,0.372,2.852,0.816,5.004,1.1
			c6.036,0.788,13.328-0.132,16.024-3.984c0.232-0.332,0.424-0.68,0.576-1.036c0.328,0.316,0.668,0.568,0.992,0.768
			c3.54,2.196,7.804,0.212,13.208-2.288c4.448-2.064,9.984-4.612,13.912-4.012c3.332,0.536,5.768-0.192,7.248-2.128
			c2.352-3.072,0.616-6.98-0.652-9.832c-0.332-0.74-0.664-1.432-0.808-1.976c-0.052-0.204,0.008-0.416,0.176-0.64
			c0.3-0.388,0.816-0.62,1.38-0.62c3.32,0,6.528-2.488,7.708-4.896c0.932-1.904,0.78-3.96-0.412-5.5
			c-2.228-2.88-6.348-2.028-7.7-1.752c-1.556,0.316-3.536-0.38-4.956-1.736c-0.98-0.936-2.072-2.536-1.708-4.836
			c0.668-4.228,6.648-5.092,13.244-5.664c0.76-0.064,1.476-0.128,2.116-0.196c2.068-0.22,4.736-1.06,8.112-2.128
			c7.388-2.332,18.548-5.852,28.492-3.904c6.928,1.36,16.488,6.292,24.924,10.64c11.552,5.96,18.896,9.588,23.984,8.848
			c1.292-0.184,3.66-0.524,5.172-2.068c0,0.26,0.012,0.524,0.036,0.792c0.468,4.82,5.572,10.52,14.412,12.088
			c4.576,0.812,7.172-1.432,8.568-2.636c0.176-0.148,0.392-0.34,0.56-0.468c0.132,0.044,0.324,0.124,0.584,0.264
			c1.616,0.852,3.592,0.52,4.824-0.828c0,0,2.016-2.208,2.856-3.008c0.148-0.1,0.288-0.212,0.42-0.332
			c1.636-1.484,1.764-4.016,0.28-5.652c-0.756-0.836-1.836-1.316-2.96-1.32c-1.536-0.056-2.372,0.496-4.692,2.956
			c-3.608-0.692-5.868,1.272-7.088,2.324c-1.032,0.892-1.128,0.96-1.944,0.816c-4.668-0.828-6.924-3.148-7.612-4.372
			c1.644-0.94,2.704-2.492,2.892-4.304c0.28-2.72-1.424-5.564-4.56-7.604c-3.9-2.54-8.508-2.86-12.024-0.844
			c-2.404,1.384-3.144,3.144-3.34,4.384c-0.088,0.536-0.088,1.04-0.028,1.512c-4.104-1.192-11.184-4.844-16.66-7.668
			c-9.344-4.82-19.004-9.8-27.048-11.38c-11.948-2.34-24.276,1.544-32.44,4.124c-2.716,0.856-5.28,1.664-6.552,1.8l-1.964,0.18
			c-6.552,0.568-18.752,1.628-20.452,12.38c-0.7,4.4,0.792,8.728,4.084,11.876c1.228,1.172,2.632,2.108,4.12,2.784
			c-0.34,0.324-0.656,0.676-0.948,1.052c-1.692,2.192-2.268,4.948-1.58,7.568c0.272,1.024,0.74,2.076,1.236,3.188
			c0.08,0.184,0.176,0.4,0.28,0.636c-5.848-0.236-11.892,2.532-16.844,4.824c-0.464,0.216-0.964,0.448-1.472,0.68
			c0.864-1.284,1.532-2.88,1.544-4.876c0.032-3.812-2.36-7.82-7.52-12.608c-0.976-0.904-2.996-2.78-3.064-3.42
			c0-0.004,0.016-0.308,0.5-1.008c2.9-4.196,4.124-7.932,0.672-12.524c-2.976-3.94-15.164-4.968-20.328-2.536
			c-3.364,1.58-4.944,4.712-4.124,8.172c0.108,0.44,0.236,0.872,0.384,1.292c-0.928-0.216-1.984-0.276-3.168-0.076
			c-8.1,1.424-13.772,5.776-15.168,11.636c-0.924,3.88,0.316,7.756,3.152,9.876c3.88,2.908,7.728,2.868,11.18,1.604
			c-1.06,1.68-1.62,3.552-1.216,5.456c0.26,1.22,0.816,2.248,1.664,3.088c-0.872,0.416-1.76,1.088-2.624,2.12
			c-4.928,5.868,1.416,11.6,4.824,14.68c1.088,0.98,2.824,2.548,3.404,3.424c-0.64,2.096-1.588,5.104-3.008,5.76
			c-0.8,0.368-2.236,0.14-4.028-0.644c-2.112-0.924-3.976-2.104-5.78-3.244c-5.612-3.552-11.976-7.572-21.412,0.672
			c-8.108,7.088-9.332,18.096-9.336,24.028c-0.008,6.644,1.564,14.732,5.088,17.828l0.924,0.808c0.68,0.592,1.464,1.276,2.016,1.812
			c-0.964,0.704-2.82,1.812-4.252,2.668c-4.88,2.912-11.556,6.896-15.384,12.128c-2.512,3.428-3.28,7.024-3.956,10.192
			c-0.984,4.62-1.636,7.668-7.112,9.992c-10.64,4.516-28.452,12.072-40.376,32.3c-6.256,10.608-8.684,30.772-1.92,46.16
			c4.632,10.532,12.836,17.324,23.732,19.636c7.332,1.556,13.656,2.456,19.236,3.248c16.976,2.416,21.448,3.444,22.14,13.056
			c1.216,16.84,12.448,19.096,20.652,20.748c2.04,0.408,3.968,0.796,5.688,1.352c1.388,0.448,0.44,6.72-0.016,9.732
			c-1,6.62-2.372,15.684,5.14,18.324c3.08,1.084,4.988,3.568,5.828,7.596c2.272,10.908-4.092,26.468-6.156,28.392
			c-10.996,8.288-12.576,22.316-9.388,31.836c3.052,9.12,10.164,14.564,19.02,14.564c34.656,0,64.28-19.856,90.42-37.352
			c17.244-11.56,32.136-21.54,44.296-22.7c27.356-2.604,36.892-13.104,36.744-21.308c-0.088-4.832-3.572-8.548-8.292-8.824
			c-9.928-0.584-17.5-3.412-20.772-7.76c-1.872-2.488-2.372-5.524-1.528-9.28c10.74-47.772-0.776-73.44-5.692-84.4
			c-0.276-0.616-0.568-1.26-0.832-1.868c15.572,2.356,15.732,22.264,14.22,49.852c-0.768,14-1.432,26.092,1.884,33.776
			c1.924,4.456,6.656,9.604,18.104,8.856c19.72-1.288,53.08-21.18,56.664-33.792c2.008-7.08-1.688-18-7.76-22.908
			c-3.584-2.896-7.724-3.452-11.36-1.528c-1.976,1.048-3.52,1.444-4.328,1.112c-0.908-0.368-2.384-2.004-4.24-7.724
			c-2.384-7.344-1.516-9.672-1.616-9.788c0.052-0.008,0.168-0.012,0.34-0.004c0.456,0.672,1.084,2.22,1.516,3.292
			c1.352,3.336,3.032,7.484,6.98,8.864c2.32,0.808,4.844,0.456,7.5-1.044c1.144-0.648,2.144-0.784,3.256-0.44
			c2.48,0.768,5.336,3.908,7.452,8.196c7.144,14.48,18.42,15.912,18.896,15.964c1.964,0.216,3.764-1,4.296-2.88
			c0.072-0.252,0.124-0.492,0.16-0.72l0.036,0.004C495.936,315.564,494.676,313.372,492.544,312.792z M255.648,106.008
			c2.868-1.272,8.632-6.024,8.956-11.244c0.172-2.76-1.18-5.22-3.704-6.74c-0.428-0.26-0.852-0.452-1.268-0.584
			c0.552-2.356-0.672-4.892-1.5-6.6c-0.308-0.632-0.644-1.328-0.876-1.932c2.312-0.736,8.256-0.24,10.348,0.736
			c0.128,0.188,0.184,0.276,0.2,0.276c-0.028,0.152-0.212,0.812-1.364,2.48c-4.796,6.952,0.32,11.696,3.704,14.836
			c4.74,4.396,4.968,6.34,4.964,6.684c-0.004,0.492-0.884,1.284-1.656,1.98c-1.192,1.068-2.748,2.472-3.168,4.58
			c-2.024-1.528-6-2.784-14.48-2.784c-1.052,0-1.86-0.056-2.472-0.132C253.98,106.976,254.82,106.368,255.648,106.008z
			 M239.232,96.38c-0.12-0.096-0.396-0.684-0.152-1.652c0.508-2.04,3.076-4.576,8.772-5.58c0.216,0.04,0.816,0.488,1.172,0.756
			c0.392,0.292,1.036,0.772,1.86,1.18c-0.308,0.268-0.612,0.54-0.92,0.812C244.66,96.584,241.86,98.336,239.232,96.38z"/>
	</g>
</g>
<g>
	<g>
		<path d="M252,0C113.048,0,0,113.048,0,252.004C0,390.956,113.048,504,252,504s252-113.044,252-251.996
			C504,113.048,390.952,0,252,0z M252,496C117.456,496,8,386.544,8,252.004C8,117.46,117.456,8,252,8s244,109.46,244,244.004
			C496,386.544,386.544,496,252,496z"/>
	</g>
</g>
<g>
	<g>
		<path d="M149.804,39.88c-0.832-1.288-1.912-1.816-3.1-1.928c0.108-1.576-0.408-3.028-1.484-4.088
			c-2.568-2.532-6.6-1.576-11.264-0.48l-1.988,0.46c-2.156,0.472-3.524,2.604-3.048,4.764c0.408,1.844,2.024,3.108,3.832,3.14
			c-0.312,0.704-0.428,1.532-0.22,2.508c0.184,0.868,0.916,2.848,3.784,3.412c-1.512,1.596-2.804,2.996-3.684,4.144
			c-2.816,3.664-3.28,10.756-3.128,12.644c-0.176,1.204-2.592,5.616-5.2,7.544l-1.504,1.092c-1.524,1.092-2.908,2.088-3.956,3.128
			c-1.712-2.04-4.788-1.852-6.06-1.776c-4.572,0.276-6.448,2.964-7.28,5.084c-2.476-0.964-4.932-1.3-6.976,1.784
			c-0.104,0.156-0.232,0.36-0.432,0.592c-2.228,2.572-7.164,9.02-4.836,13.284c0.172,0.316,0.564,0.924,1.252,1.48
			c-1.96,1.156-4.576,1.984-8.312,2.732c-1.876,0.376-2.44,0.3-2.4,0.292c-2.108-1.024-3.876-0.928-7.564,0.42
			c-4.928,1.804-10.284,7.32-14.588,11.752c-1.528,1.568-3.424,3.524-4.044,3.924c-2.312,1.388-4.096,3.932-6.564,7.448
			c-1.74,2.476-3.904,5.56-6.796,9.02c-3.516,4.208-5.22,8.356-6.584,11.688c-1.436,3.496-2.26,5.36-3.944,6.224
			c-7.068,3.632-12.328,13.144-14.412,20.956c-0.656,2.472-1.048,4.576-1.384,6.4c-0.572,3.116-0.888,4.656-1.836,5.632
			c-0.076,0.076-0.144,0.148-0.212,0.216c-0.016,0-0.028,0-0.04,0c-1.784,0-3.408,1.196-3.872,3.004l-0.268,1.068
			c-0.336,1.3,0.008,2.68,0.912,3.676c0.768,0.84,1.844,1.312,2.964,1.312c0.204,0,0.408-0.016,0.612-0.048
			c2.044-0.316,3.736-1.692,5.648-3.664c2.672-2.76,3.272-6,3.96-9.756c0.304-1.648,0.652-3.556,1.248-5.788
			c1.86-6.992,6.304-13.828,10.332-15.9c4.388-2.252,6.068-6.344,7.692-10.304c1.276-3.112,2.596-6.336,5.32-9.588
			c3.112-3.724,5.384-6.96,7.208-9.56c1.612-2.296,3.28-4.672,4.14-5.188c1.384-0.832,2.972-2.44,5.66-5.208
			c3.336-3.44,8.384-8.636,11.596-9.812c0.88-0.32,1.412-0.476,1.716-0.552c1.592,0.684,3.38,0.908,7.064,0.176
			c7.68-1.532,13.596-3.884,17.496-10.372l0.096-0.164c0.724,0.24,1.428,0.416,2.056,0.572c0.68,0.172,1.704,0.428,1.96,0.56
			c0.94,0.624,2.524,1.268,4.7,0.828c5.96-1.22,12.388-10.396,14.216-13.18c1.608-2.448,3.42-5.212,1.652-7.76
			c3.796-3.288,7.808-9.732,7.544-13.54c-0.132-1.968,0.66-6.412,1.492-7.5c0.856-1.108,2.568-2.9,4.38-4.8
			c1.648-1.724,3.464-3.628,5.18-5.568C150.62,43.96,151.048,41.796,149.804,39.88z M112.876,90.656
			c-0.78-0.376-1.624-0.64-2.472-0.868l1.976-1.6c2.364-1.908,4.28-3.452,5.592-4.876c0.324,0.38,0.74,0.748,1.284,1.064
			C116.48,87.952,114.044,90.04,112.876,90.656z"/>
	</g>
</g>
<g>
	<g>
		<path d="M460.244,202.76c-1.424-2.648-3.216-5.992-4.176-8.248c3.932-0.948,5.58-3.7,5.752-6.124
			c0.296-4.16-3.424-8.108-8.676-8.86c-1.296-0.192-3.256-0.476-5.36-0.476c-4.248,0-7.396,1.212-9.352,3.6
			c-1.86,2.272-2.424,5.308-1.676,9.02c1.112,5.492,3.468,10.976,5.552,15.808c2.428,5.64,4.936,11.468,4.02,14.392l-0.604,1.888
			c-2.032,6.256-3.788,11.66,5.044,17.328c1.996,1.28,4.012,1.932,5.992,1.932c6.036,0,10.536-5.872,12.032-15.712
			C469.808,220.568,464.728,211.108,460.244,202.76z M460.88,226.108c-0.88,5.816-2.96,8.912-4.12,8.912
			c-0.404,0-1.012-0.244-1.672-0.664c-3.636-2.336-3.636-2.336-1.756-8.124l0.628-1.964c1.804-5.756-1.16-12.652-4.304-19.948
			c-2.024-4.696-4.112-9.552-5.06-14.232c-0.3-1.48-0.112-2.196,0.028-2.368c0.192-0.232,1.096-0.668,3.164-0.668
			c1.008,0,2.028,0.096,2.932,0.208c-1.064,0.424-1.948,1.156-2.54,2.148c-2.204,3.692,0.36,8.468,5.016,17.136
			C456.5,212.7,461.5,222.008,460.88,226.108z"/>
	</g>
</g>
<g>
	<g>
		<path d="M411.08,176.828c-2.824-0.356-5.484-0.364-7.828-0.372c-4.984-0.016-7.664-0.12-9.308-2.164
			c-4.144-5.172-8.408-9.812-14.964-9.812c-1.172,0-2.356,0.144-3.632,0.44c-7.272,1.708-11.608,10.352-11.456,17.384
			c0.148,6.852,4.296,11.88,10.832,13.12c5.932,1.12,10.42,0.484,12.876-0.092c0.86-0.2,1.48-0.344,2.032-0.344
			c0.496,0,1.376,0.108,3.236,1.048c2.644,1.336,5.524,3.432,8.312,5.456c5.068,3.684,9.444,6.864,13.736,6.864
			c0.484,0,0.956-0.04,1.412-0.12c5.264-0.924,8.616-9.024,8.448-16.004C424.568,183.644,419.444,177.884,411.08,176.828z
			 M414.608,200.328c-1.86-0.316-5.8-3.184-8.724-5.308c-3.044-2.212-6.188-4.5-9.408-6.128c-2.608-1.32-4.72-1.908-6.844-1.908
			c-1.472,0-2.684,0.28-3.844,0.552c-1.284,0.3-2.492,0.584-4.38,0.584c-1.512,0-3.208-0.18-5.188-0.556
			c-1.044-0.196-4.224-0.8-4.324-5.432c-0.088-4.104,2.528-8.772,5.28-9.42c3.652-0.84,5.472,0.272,10.536,6.588
			c4.116,5.12,9.916,5.136,15.52,5.152c2.216,0.008,4.512,0.016,6.844,0.312c3.532,0.444,5.552,2.06,6.356,5.084
			C417.572,194.156,415.72,199.02,414.608,200.328z"/>
	</g>
</g>
<g>
	<g>
		<path d="M377.624,218.308c-0.148,0-14.828-0.108-14.828-9.468c0-1.488,0.108-3.104,0.212-4.724
			c0.352-5.472,0.72-11.136-2.408-14.472c-1.004-1.072-2.808-2.352-5.896-2.352c-0.004,0-0.004,0-0.008,0
			c-8.34,0.168-9.256,8.944-9.804,14.188c-0.152,1.456-0.372,3.572-0.688,4.492c-0.36,0.132-0.852,0.232-1.424,0.232
			c-0.636,0-1.848-0.136-2.776-1.032c-1.204-1.164-1.456-3.172-1.456-4.652c0-12.14-0.844-22.228-2.204-26.32
			c-6.9-20.736-15.34-23.832-19.756-23.832c-1.928,0-3.716,0.588-5.164,1.704c-5.576,4.276-0.308,11.996,6.36,21.764
			c2.3,3.372,6.04,8.844,6.716,11.076c-1.884,2.644-4.028,3.692-5.024,3.848c-1.396-1.488-3.764-7.048-5.36-10.8
			c-2.204-5.168-4.48-10.516-7.064-13.94c-3.496-4.632-12.748-15.4-23.128-15.4c-1.952,0-3.844,0.388-5.612,1.16
			c-2.864,1.248-4.5,3.488-5.692,5.124c-1.32,1.812-1.576,1.964-2.02,1.964c-0.32,0-0.916-0.08-1.904-0.456
			c-8.2-3.116-13.42-2.876-16.668,0.452c-2.6,2.66-2.852,6.48-2.78,9.508c0.016,0.712,0.108,1.496,0.216,2.328
			c0.432,3.384,0.532,4.188-3.728,5.028c-3.212,0.636-6.092,0.804-8.632,0.952c-4.952,0.288-10.068,0.588-12.024,5.52
			c-1.276,3.208-0.224,5.524,0.52,6.616c1.98,2.92,5.996,4.22,13.028,4.22c21.164,0,35.148,1.788,42.752,5.46
			c5.7,2.756,6.844,6.096,6.844,10.596c-0.012,10.668,10.352,13.472,17.208,15.328c1.956,0.528,4.804,1.3,5.888,1.972
			c-0.66,4.728,0.756,9.936,3.676,13.408c3.552,4.224,8.96,5.024,13.008,1.912c2.844-2.188,4.376-4.5,5.492-6.188
			c1.432-2.164,1.512-2.228,2.852-2.228c8.02,0,15.208,5.908,21.552,11.124c5.72,4.7,11.124,9.14,16.984,9.14
			c7.264,0,11.584-2.808,13.928-5.16c3.004-3.016,4.66-7.128,4.66-11.572C393.472,226.708,387.544,218.308,377.624,218.308z
			 M324.396,169.324c-2.116-3.1-5.36-7.852-6.668-10.68c2.384,1.052,6.464,5.264,10.388,16.22
			C327.012,173.156,325.756,171.316,324.396,169.324z M383.148,240.752c-1.832,1.836-4.688,2.808-8.264,2.808
			c-2.996,0-7.524-3.724-11.904-7.324c-7.016-5.764-15.748-12.94-26.632-12.94c-5.68,0-7.904,3.36-9.52,5.808
			c-0.984,1.484-1.912,2.888-3.7,4.264c-0.588,0.444-0.864,0.636-2.008-0.724c-1.244-1.484-2.348-4.428-1.832-7.404
			c1.22-7.036-6.284-9.068-11.76-10.548c-7.816-2.112-11.304-3.712-11.3-7.6c0-5.284-1.176-12.88-11.364-17.804
			c-8.836-4.268-23.528-6.256-46.232-6.256c-1.548,0-2.756-0.08-3.688-0.188c0.868-0.08,1.808-0.132,2.628-0.18
			c2.66-0.156,5.972-0.348,9.72-1.092c11.592-2.292,10.552-10.416,10.108-13.888c-0.072-0.532-0.144-1.04-0.156-1.5
			c-0.068-2.984,0.412-3.632,0.508-3.732c0.144-0.148,1.672-1.008,8.096,1.436c1.732,0.66,3.284,0.98,4.752,0.98
			c4.656,0,6.96-3.16,8.484-5.248c0.832-1.14,1.548-2.124,2.424-2.504c5.692-2.472,14.244,5.216,19.16,11.724
			c1.996,2.644,4.172,7.752,6.088,12.256c3.752,8.808,6.06,13.856,9.924,15.248c4.112,1.484,9.792-1.048,13.652-5.892
			c0.132,2.876,0.216,6.216,0.216,10.06c0,5.488,2.12,8.684,3.896,10.404c2.188,2.112,5.148,3.28,8.336,3.28
			c2.124,0,4.208-0.536,5.876-1.512c3.316-1.952,3.764-6.236,4.196-10.376c0.292-2.784,0.728-6.992,1.892-7.22
			c0.768,1.072,0.452,5.908,0.284,8.508c-0.116,1.8-0.228,3.592-0.228,5.24c0,12,11.832,17.468,22.828,17.468
			c5.152,0,7.848,4.284,7.848,8.52C385.476,237.14,384.648,239.244,383.148,240.752z"/>
	</g>
</g>
<g>
	<g>
		<path d="M318.96,196.424c-1.688-5.62-8.436-9.392-13.68-9.392c-4.436,0-7.676,2.696-8.256,6.864
			c-0.8,5.748,1.104,9.328,2.84,11.324c2.196,2.524,5.388,3.972,8.752,3.972c1.992,0,3.828-0.516,5.316-1.5
			C320.268,203.5,319.56,198.416,318.96,196.424z M309.52,201.02c-0.076,0.048-0.38,0.172-0.904,0.172
			c-0.388,0-1.728-0.088-2.72-1.224c-1.168-1.344-1.164-3.444-1.164-4.868c0,0,0.156-0.068,0.544-0.068
			c2.248,0,5.512,2.004,6.024,3.696C311.544,199.536,310.288,200.512,309.52,201.02z"/>
	</g>
</g>
<g>
	<g>
		<path d="M255.784,60.12c-2.948-3.056-9.472-6.344-16.832-6.344c-2.164,0-4.268,0.292-6.264,0.872
			c-1.884,0.552-7.012,3.476-6.844,8.008c0.084,2.308,1.492,5.336,7.692,6.656c5.012,1.068,10.164,1.684,14.14,1.684
			c6.712,0,10.188-1.984,10.336-5.896C258.072,63.388,257.324,61.712,255.784,60.12z M237.168,61.88
			c2.756-0.332,5.72,0.204,8.02,1.032C242.756,62.756,239.96,62.396,237.168,61.88z"/>
	</g>
</g>
<g>
	<g>
		<path d="M277.208,45.812c-4.712-1.348-10.552-1.836-16.196-2.304c-4.712-0.392-12.596-1.052-13.972-2.332
			c-0.7-0.916-1.208-1.972-1.748-3.088c-1.696-3.516-4.02-8.332-13.132-8.864c-3.728-0.216-5.852-0.6-7.56-0.904
			c-2.624-0.476-4.88-0.768-8.676-0.152c-5.804,0.944-9.56,4.448-11.808,6.544c-0.5,0.468-0.924,0.88-1.3,1.156
			c-2.008,1.468-2.02,3.396-1.932,4.156c0.004,0.012,0.004,0.024,0.004,0.036c-3.388,1.1-6.54,1.856-9.348,2.524
			c-4.856,1.16-8.696,2.08-11.604,4.2c-0.552,0.404-1.244,0.88-2.012,1.416c-6.932,4.82-11.496,8.28-11.78,12.26
			c-0.112,1.604,0.472,3.092,1.66,4.2c2.216,2.052,5.512,3.184,9.272,3.184c2.872,0,5.896-0.676,8.748-1.952
			c5-2.26,21.076-5.676,33.076-7.032c3.892-0.44,12.712-0.968,22.048-1.524c39.264-2.34,39.28-2.508,39.76-6.868
			C280.884,48.832,280.076,46.632,277.208,45.812z M240.476,49.336c-9.86,0.588-18.372,1.096-22.476,1.56
			c-11.632,1.316-29.06,4.796-35.464,7.692c-2.312,1.04-4.892,1.428-6.74,1.172c2.056-1.768,5.228-3.972,6.7-5
			c0.824-0.572,1.564-1.088,2.156-1.52c1.612-1.176,4.92-1.968,8.752-2.884c3.192-0.764,6.816-1.628,10.856-2.996
			c2.896-0.976,6.86-2.316,7-5.924c0.032-0.8-0.132-1.476-0.408-2.048c1.656-1.452,3.68-2.896,6.356-3.332
			c2.616-0.428,3.688-0.284,5.984,0.128c1.816,0.324,4.304,0.768,8.508,1.016c4.416,0.256,4.952,1.372,6.392,4.352
			c0.656,1.364,1.404,2.904,2.6,4.472c1.032,1.348,2.528,2.316,4.4,3.036C243.488,49.156,241.94,49.248,240.476,49.336z"/>
	</g>
</g>
<g>
</g>
<g>
</g>
<g>
</g>
<g>
</g>
<g>
</g>
<g>
</g>
<g>
</g>
<g>
</g>
<g>
</g>
<g>
</g>
<g>
</g>
<g>
</g>
<g>
</g>
<g>
</g>
<g>
</g>
</svg>
