<?xml version="1.0" encoding="iso-8859-1"?>
<!-- Generator: Adobe Illustrator 19.0.0, SVG Export Plug-In . SVG Version: 6.00 Build 0)  -->
<svg version="1.1" id="Capa_1" xmlns="http://www.w3.org/2000/svg" xmlns:xlink="http://www.w3.org/1999/xlink" x="0px" y="0px"
	 viewBox="0 0 488.964 488.964" style="enable-background:new 0 0 488.964 488.964;" xml:space="preserve">
<g>
	<g>
		<path d="M355.732,418.2c-8.3-8.3-20.8-8.3-29.1,0c-8.3,8.3-8.3,20.8,0,29.1l35.4,35.4c13.6,11.7,25,4.2,29.1,0
			c8.3-8.3,8.3-20.8,0-29.1L355.732,418.2z"/>
		<path d="M401.532,372.5c-8.3-8.3-20.8-8.3-29.1,0c-8.3,8.3-8.3,20.8,0,29.1l35.4,35.4c12.4,11.3,25,4.2,29.1,0
			c8.3-8.3,8.3-20.8,0-29.1L401.532,372.5z"/>
		<path d="M482.632,361l-35.4-35.4c-8.3-8.3-20.8-8.3-29.1,0c-8.3,8.3-8.3,20.8,0,29.1l35.4,35.4c13.4,11.7,25,4.2,29.1,0
			C491.032,381.8,491.032,369.3,482.632,361z"/>
		<path d="M416.132,252.8l-140.5-140.4C206.932,44.8,117.532,4.2,21.832,0c-6.8,0-21.8,4.4-21.8,21.8
			c4.2,94.7,44.7,185.2,112.4,252.8l140.4,140.4c12.8,11.8,25,4.2,28.1,0l135.2-133.2C424.432,273.6,424.432,261.1,416.132,252.8z
			 M267.332,371.4l-125.9-125.9c-55.1-54.1-89.5-125.8-98.8-202.8c77,9.4,148.8,43.7,202.9,98.8l126.9,124.8L267.332,371.4z"/>
		<circle cx="114.432" cy="114.8" r="20.8"/>
		<circle cx="176.832" cy="177.3" r="20.8"/>
		<circle cx="239.232" cy="239.7" r="20.8"/>
	</g>
</g>
<g>
</g>
<g>
</g>
<g>
</g>
<g>
</g>
<g>
</g>
<g>
</g>
<g>
</g>
<g>
</g>
<g>
</g>
<g>
</g>
<g>
</g>
<g>
</g>
<g>
</g>
<g>
</g>
<g>
</g>
</svg>
