<?xml version="1.0" encoding="iso-8859-1"?>
<!-- Generator: Adobe Illustrator 18.0.0, SVG Export Plug-In . SVG Version: 6.00 Build 0)  -->
<!DOCTYPE svg PUBLIC "-//W3C//DTD SVG 1.1//EN" "http://www.w3.org/Graphics/SVG/1.1/DTD/svg11.dtd">
<svg version="1.1" id="Capa_1" xmlns="http://www.w3.org/2000/svg" xmlns:xlink="http://www.w3.org/1999/xlink" x="0px" y="0px"
	 viewBox="0 0 458.884 458.884" style="enable-background:new 0 0 458.884 458.884;" xml:space="preserve">
<g>
	<path d="M325.685,92.912c-1.421-1.541-3.42-2.417-5.515-2.417c-2.096,0-4.095,0.876-5.515,2.417
		c-7.317,7.939-13.149,16.947-17.374,26.635C287.024,76.139,265.759,35.83,234.962,2.417C233.542,0.876,231.543,0,229.448,0
		c-0.001,0-0.001,0-0.001,0c-2.095,0-4.095,0.876-5.515,2.416c-30.802,33.411-52.07,73.72-62.329,117.132
		c-4.225-9.688-10.058-18.697-17.375-26.636c-1.42-1.541-3.419-2.417-5.514-2.417c-0.001,0-0.001,0-0.001,0
		c-2.095,0-4.095,0.876-5.515,2.417c-16.349,17.734-25.353,40.784-25.353,64.903v293.569c0,4.142,3.357,7.5,7.5,7.5h228.19
		c4.143,0,7.5-3.358,7.5-7.5V157.815C351.037,133.696,342.033,110.646,325.685,92.912z M320.171,109.738
		c10.283,13.857,15.866,30.636,15.866,48.077v8.455h-31.729v-8.455C304.308,140.375,309.89,123.596,320.171,109.738z
		 M336.037,410.242l-1.681-9.701c-3.581-20.667-14.81-37.148-30.049-44.126V181.27h31.729V410.242z M289.308,341.972
		c-4.797-8.206-7.647-18.726-7.647-29.811v-69.837c0-34.404-12.843-67.283-36.162-92.579c0,0,0,0-0.001,0
		c-4.121-4.471-9.973-7.035-16.054-7.035s-11.933,2.564-16.055,7.035c-23.319,25.296-36.162,58.175-36.162,92.579v69.837
		c0,11.086-2.851,21.607-7.649,29.813V179.97c0-28.241,4.795-55.911,13.968-81.99h91.796c9.172,26.08,13.967,53.749,13.967,81.99
		V341.972z M122.847,410.259V181.27h31.73v175.147c-15.238,6.978-26.466,23.458-30.047,44.125L122.847,410.259z M229.447,18.769
		c16.726,19.402,30.176,41.066,40.063,64.211h-80.132C199.265,59.833,212.718,38.17,229.447,18.769z M138.713,109.738
		c10.282,13.858,15.864,30.637,15.864,48.077v8.455h-31.73v-8.455C122.847,140.375,128.43,123.595,138.713,109.738z
		 M132.244,443.884l7.065-40.782c2.701-15.588,10.972-28.266,21.585-33.086c6.193-2.812,11.715-7.234,16.332-12.836v86.704H132.244z
		 M192.227,242.324c0-30.626,11.433-59.894,32.19-82.412c1.31-1.42,3.095-2.203,5.026-2.203s3.716,0.782,5.025,2.202
		c20.759,22.518,32.191,51.786,32.191,82.412v201.56h-29.717v-72.448c0-4.142-3.357-7.5-7.5-7.5s-7.5,3.358-7.5,7.5v72.448h-29.717
		V242.324z M320.077,443.884H281.66V357.18c4.617,5.602,10.139,10.024,16.332,12.836c10.613,4.82,18.884,17.497,21.585,33.086
		l7.065,40.782H320.077z"/>
	<path d="M242.49,228.066c1.465,1.464,3.385,2.197,5.304,2.197s3.839-0.732,5.304-2.197c2.929-2.929,2.929-7.678,0-10.607
		c-13.043-13.042-34.264-13.042-47.307,0c-2.929,2.929-2.929,7.678,0,10.607c2.929,2.928,7.677,2.929,10.607,0
		C223.591,220.872,235.296,220.872,242.49,228.066z"/>
	<path d="M236.365,348.071c-0.18-0.46-0.42-0.89-0.69-1.3c-0.27-0.41-0.58-0.79-0.93-1.14c-0.35-0.34-0.73-0.66-1.14-0.93
		c-0.41-0.27-0.841-0.5-1.29-0.69c-0.46-0.19-0.931-0.33-1.41-0.43c-2.43-0.49-5.021,0.31-6.771,2.05
		c-0.34,0.35-0.659,0.73-0.93,1.14c-0.27,0.41-0.5,0.84-0.69,1.3c-0.18,0.45-0.329,0.92-0.42,1.4c-0.1,0.48-0.149,0.98-0.149,1.46
		c0,0.49,0.05,0.99,0.149,1.47c0.091,0.48,0.24,0.95,0.42,1.4c0.19,0.46,0.421,0.89,0.69,1.3c0.271,0.41,0.59,0.79,0.93,1.14
		c0.351,0.34,0.73,0.66,1.141,0.93s0.85,0.5,1.3,0.69s0.92,0.33,1.4,0.43c0.489,0.1,0.979,0.15,1.47,0.15s0.979-0.05,1.46-0.15
		c0.479-0.1,0.95-0.24,1.41-0.43c0.449-0.19,0.88-0.42,1.29-0.69c0.409-0.27,0.79-0.59,1.14-0.93c0.35-0.35,0.66-0.73,0.93-1.14
		c0.271-0.41,0.511-0.84,0.69-1.3c0.189-0.45,0.33-0.92,0.43-1.4c0.101-0.48,0.15-0.98,0.15-1.47c0-0.48-0.05-0.98-0.15-1.46
		C236.696,348.991,236.555,348.521,236.365,348.071z"/>
</g>
<g>
</g>
<g>
</g>
<g>
</g>
<g>
</g>
<g>
</g>
<g>
</g>
<g>
</g>
<g>
</g>
<g>
</g>
<g>
</g>
<g>
</g>
<g>
</g>
<g>
</g>
<g>
</g>
<g>
</g>
</svg>
